<svg width="269" height="270" xmlns="http://www.w3.org/2000/svg" xmlns:xlink="http://www.w3.org/1999/xlink" overflow="hidden"><defs><clipPath id="clip0"><rect x="93" y="428" width="269" height="270"/></clipPath></defs><g clip-path="url(#clip0)" transform="translate(-93 -428)"><path d="M134.5 224.167C85.1833 224.167 44.8333 183.817 44.8333 134.5 44.8333 85.1833 85.1833 44.8333 134.5 44.8333 183.817 44.8333 224.167 85.1833 224.167 134.5 224.167 183.817 183.817 224.167 134.5 224.167ZM134.5 28.0208C75.6563 28.0208 28.0208 75.6563 28.0208 134.5 28.0208 193.344 75.6563 240.979 134.5 240.979 193.344 240.979 240.979 193.344 240.979 134.5 240.979 75.6563 193.344 28.0208 134.5 28.0208Z" stroke="#1F4E79" stroke-width="2.80208" fill="#1F4E79" transform="matrix(1 0 0 1.00372 93 428)"/><path d="M140.104 78.4583 128.896 78.4583 128.896 134.5C128.896 136.181 129.456 137.582 130.577 138.423L170.086 177.932 177.932 170.086 140.104 132.258 140.104 78.4583Z" stroke="#1F4E79" stroke-width="2.80208" fill="#1F4E79" transform="matrix(1 0 0 1.00372 93 428)"/><path d="M140.104 61.6458C140.104 64.7409 137.595 67.25 134.5 67.25 131.405 67.25 128.896 64.7409 128.896 61.6458 128.896 58.5507 131.405 56.0417 134.5 56.0417 137.595 56.0417 140.104 58.5507 140.104 61.6458Z" stroke="#1F4E79" stroke-width="2.80208" fill="#1F4E79" transform="matrix(1 0 0 1.00372 93 428)"/><path d="M140.104 207.354C140.104 210.449 137.595 212.958 134.5 212.958 131.405 212.958 128.896 210.449 128.896 207.354 128.896 204.259 131.405 201.75 134.5 201.75 137.595 201.75 140.104 204.259 140.104 207.354Z" stroke="#1F4E79" stroke-width="2.80208" fill="#1F4E79" transform="matrix(1 0 0 1.00372 93 428)"/><path d="M67.25 134.5C67.25 137.595 64.7409 140.104 61.6458 140.104 58.5507 140.104 56.0417 137.595 56.0417 134.5 56.0417 131.405 58.5507 128.896 61.6458 128.896 64.7409 128.896 67.25 131.405 67.25 134.5Z" stroke="#1F4E79" stroke-width="2.80208" fill="#1F4E79" transform="matrix(1 0 0 1.00372 93 428)"/><path d="M212.958 134.5C212.958 137.595 210.449 140.104 207.354 140.104 204.259 140.104 201.75 137.595 201.75 134.5 201.75 131.405 204.259 128.896 207.354 128.896 210.449 128.896 212.958 131.405 212.958 134.5Z" stroke="#1F4E79" stroke-width="2.80208" fill="#1F4E79" transform="matrix(1 0 0 1.00372 93 428)"/></g></svg>