<svg width="195" height="194" xmlns="http://www.w3.org/2000/svg" xmlns:xlink="http://www.w3.org/1999/xlink" overflow="hidden"><defs><clipPath id="clip0"><rect x="154" y="1305" width="195" height="194"/></clipPath></defs><g clip-path="url(#clip0)" transform="translate(-154 -1305)"><path d="M162.043 44.9575C162.043 44.9575 154.341 56.357 154.341 61.502 154.134 65.7559 157.415 69.372 161.669 69.5789 165.923 69.7856 169.539 66.5048 169.746 62.2508 169.758 62.0014 169.758 61.7514 169.746 61.502 169.75 56.3812 162.043 44.9575 162.043 44.9575Z" stroke="#1F4E79" stroke-width="2.02079" fill="#1F4E79" transform="matrix(1.00515 0 0 1 154 1305)"/><path d="M164.375 28.2917 162.374 23.5205C161.944 22.5 160.772 22.016 159.747 22.4353L125.52 36.5811C122.669 37.7603 120.215 39.7298 118.447 42.2576L110.135 54.1422 105.96 52.281C104.941 51.8261 103.746 52.2834 103.291 53.3025 103.291 53.3029 103.291 53.3031 103.291 53.3035L100.058 60.5785 84.3516 45.7456C82.0974 43.6175 79.1136 42.4337 76.0136 42.4375L36.375 42.4375C29.6786 42.4375 24.25 47.8661 24.25 54.5625L24.25 157.625C24.25 164.321 29.6786 169.75 36.375 169.75L119.229 169.75C125.926 169.75 131.354 164.321 131.354 157.625L131.354 82.7167C131.345 78.8501 129.488 75.2211 126.357 72.9521L129.837 65.1496C130.293 64.1334 129.841 62.9393 128.826 62.4801L124.629 60.6088 129.501 48.7021C130.732 45.7017 133.113 43.3196 136.113 42.0879L163.283 30.9369C164.314 30.5097 164.804 29.3275 164.377 28.2963 164.376 28.2949 164.375 28.2933 164.375 28.2917ZM61.6051 68.7083C58.3891 68.7087 55.305 67.4316 53.0307 65.1577L42.4375 54.5625 72.8005 54.5625C74.8642 54.5627 76.8495 55.3522 78.3497 56.7692L90.9921 68.7083Z" stroke="#1F4E79" stroke-width="2.02079" fill="#1F4E79" transform="matrix(1.00515 0 0 1 154 1305)"/></g></svg>