<svg width="240" height="240" xmlns="http://www.w3.org/2000/svg" xmlns:xlink="http://www.w3.org/1999/xlink" overflow="hidden"><defs><clipPath id="clip0"><rect x="584" y="1637" width="240" height="240"/></clipPath></defs><g clip-path="url(#clip0)" transform="translate(-584 -1637)"><path d="M762.25 1791.75C756.75 1786.25 747.75 1786.5 741 1791.75L730.5 1781.25C757.75 1751.75 756 1706 726.5 1678.75 697 1651.5 651.5 1653.5 624.25 1683 597 1712.5 599 1758.25 628.25 1785.5 656.25 1811.5 699.5 1811.25 727.25 1785L737.75 1795.5C735.5 1798.25 734.25 1801.75 733.75 1805.25 733.25 1809.5 734.75 1813.75 737.75 1816.75L773 1852C775.75 1854.5 779.25 1856 783 1856 788 1856 792.5 1854 796 1850.5 799.25 1847.5 801.25 1843.25 801.5 1838.75 802 1834.5 800.5 1830.25 797.5 1827.25L762.25 1791.75ZM630 1779.75C603.75 1753.5 603.75 1710.75 630 1684.25 656.25 1657.75 699 1658 725.5 1684.25 752 1710.5 751.75 1753.25 725.5 1779.75 712.75 1792.5 695.75 1799.5 677.75 1799.5 660 1799.5 642.75 1792.5 630 1779.75ZM792.25 1846.5C787.5 1851.25 780.25 1852 776.25 1848L741.25 1813C739.25 1811 738.5 1808.25 738.75 1805.5 739 1802.25 740.5 1799.25 743 1797 745.5 1794.5 749 1793 752.5 1792.75 755 1792.75 757.25 1793.5 759 1795.25L794 1830.5C796 1832.5 796.75 1835.25 796.5 1838 796 1841.25 794.75 1844.25 792.25 1846.5 792.25 1846.5 792.25 1846.5 792.25 1846.5Z" stroke="#FFC000" stroke-width="8" fill="#FFA500"/></g></svg>