<svg width="68" height="68" xmlns="http://www.w3.org/2000/svg" xmlns:xlink="http://www.w3.org/1999/xlink" overflow="hidden"><defs><clipPath id="clip0"><rect x="838" y="173" width="68" height="68"/></clipPath></defs><g clip-path="url(#clip0)" transform="translate(-838 -173)"><path d="M888.504 216.846C886.946 215.288 884.396 215.358 882.483 216.846L879.508 213.871C887.229 205.512 886.733 192.55 878.375 184.829 870.017 177.108 857.125 177.675 849.404 186.033 841.683 194.392 842.25 207.354 850.537 215.075 858.471 222.442 870.725 222.371 878.588 214.933L881.563 217.908C880.925 218.688 880.571 219.679 880.429 220.671 880.287 221.875 880.713 223.079 881.563 223.929L891.55 233.917C892.329 234.625 893.321 235.05 894.383 235.05 895.8 235.05 897.075 234.483 898.067 233.492 898.987 232.642 899.554 231.438 899.625 230.162 899.767 228.958 899.342 227.754 898.492 226.904L888.504 216.846ZM851.033 213.446C843.596 206.008 843.596 193.896 851.033 186.387 858.471 178.879 870.583 178.95 878.092 186.387 885.6 193.825 885.529 205.938 878.092 213.446 874.479 217.058 869.662 219.042 864.563 219.042 859.533 219.042 854.646 217.058 851.033 213.446ZM897.004 232.358C895.658 233.704 893.604 233.917 892.471 232.783L882.554 222.867C881.987 222.3 881.775 221.521 881.846 220.742 881.917 219.821 882.342 218.971 883.05 218.333 883.758 217.625 884.75 217.2 885.742 217.129 886.45 217.129 887.088 217.342 887.583 217.837L897.5 227.825C898.067 228.392 898.279 229.171 898.208 229.95 898.067 230.871 897.713 231.721 897.004 232.358 897.004 232.358 897.004 232.358 897.004 232.358Z" stroke="#1F4E79" stroke-width="2.26671" fill="#1F4E79"/></g></svg>