<svg width="74" height="73" xmlns="http://www.w3.org/2000/svg" xmlns:xlink="http://www.w3.org/1999/xlink" overflow="hidden"><defs><clipPath id="clip0"><rect x="712" y="1054" width="74" height="73"/></clipPath></defs><g clip-path="url(#clip0)" transform="translate(-712 -1054)"><path d="M57.8677 32.6979C57.8677 33.9906 56.8792 34.9792 55.5865 34.9792 54.2938 34.9792 53.3052 33.9906 53.3052 32.6979L53.3052 24.3333C53.3052 25.626 52.3167 26.6146 51.024 26.6146 49.7313 26.6146 48.7427 25.626 48.7427 24.3333L48.7427 19.7708C48.7427 21.0635 47.7542 22.0521 46.4615 22.0521 45.1688 22.0521 44.1802 21.0635 44.1802 19.7708L44.1802 16.6531C42.9635 16.7292 41.7469 16.7292 40.3781 16.7292 30.949 16.7292 24.9417 14.9802 22.8885 13.6875 24.9417 12.3948 30.949 10.6458 40.3781 10.6458 49.8073 10.6458 55.8146 12.3948 57.8677 13.6875L57.8677 32.6979ZM14.2198 40.3021C13.6115 39.6938 14.4479 35.8917 19.0865 29.8083L19.0865 39.0854C16.425 40.4542 14.676 40.7583 14.2198 40.3021ZM40.3781 7.60417C28.5917 7.60417 19.0865 10.3417 19.0865 13.6875L19.0865 24.9417C18.7063 25.3979 18.326 25.8542 17.8698 26.3865 14.9802 30.0365 8.51667 38.8573 12.0906 42.4313 12.775 43.1156 13.7635 43.4958 14.9042 43.4958 19.3906 43.4958 26.7667 38.401 32.85 32.3937 33.3063 32.5458 33.7625 32.6979 34.2948 32.6979 36.424 32.6979 38.0969 31.025 38.0969 28.8958 38.0969 26.7667 36.424 25.0938 34.2948 25.0938 32.1656 25.0938 30.4927 26.7667 30.4927 28.8958 30.4927 29.3521 30.5688 29.8083 30.7208 30.1885 29.9604 30.949 29.124 31.7094 28.3635 32.3177 27.7552 31.3292 27.375 30.1125 27.375 28.8198 27.375 25.0177 30.4167 21.976 34.2188 21.976 38.0208 21.976 41.0625 25.0177 41.0625 28.8198 41.0625 32.6219 38.0208 35.6635 34.2188 35.6635 34.0667 35.6635 33.8385 35.6635 33.6865 35.6635 30.3406 38.7813 24.4854 43.724 19.0104 45.625L19.0104 59.3125C19.0104 62.6583 28.5917 65.3958 40.3021 65.3958 52.0125 65.3958 61.5938 62.6583 61.5938 59.3125L61.5938 13.6875C61.6698 10.3417 52.1646 7.60417 40.3781 7.60417Z" stroke="#1F4E79" stroke-width="0.760417" fill="#1F4E79" transform="matrix(1.0137 0 0 1 712 1054)"/></g></svg>