<svg width="67" height="68" xmlns="http://www.w3.org/2000/svg" xmlns:xlink="http://www.w3.org/1999/xlink" overflow="hidden"><defs><clipPath id="clip0"><rect x="336" y="1054" width="67" height="68"/></clipPath></defs><g clip-path="url(#clip0)" transform="translate(-336 -1054)"><path d="M21.3563 42.6427C20.5188 41.8052 19.1927 41.8052 18.425 42.6427L4.11771 56.95C3.28021 57.7875 3.28021 59.1135 4.11771 59.8813 4.11771 59.8813 4.11771 59.8813 4.11771 59.8813L7.04896 62.8125C7.88646 63.65 9.2125 63.65 9.98021 62.8125 9.98021 62.8125 9.98021 62.8125 9.98021 62.8125L24.2875 48.5052C25.125 47.6677 25.125 46.3417 24.2875 45.574L27.4281 42.4333C28.824 41.0375 29.2427 39.0135 28.5448 37.199L19.5417 14.4469C19.4719 14.1677 19.4719 13.8885 19.6813 13.6792L25.7531 7.60729C26.0323 7.32813 26.451 7.32813 26.7302 7.60729L27.7073 8.58438 26.7302 9.56146C25.6135 10.6781 25.6135 12.4229 26.7302 13.5396 26.7302 13.5396 26.7302 13.5396 26.7302 13.5396L53.3906 40.2C54.5073 41.3167 56.2521 41.3167 57.3687 40.2 57.3687 40.2 57.3687 40.2 57.3687 40.2L62.324 35.2448C63.4406 34.1281 63.4406 32.3833 62.324 31.2667L35.6635 4.67604C34.5469 3.55938 32.8021 3.55938 31.6854 4.67604L30.7083 5.65313 29.7312 4.67604C27.8469 2.79167 24.7063 2.79167 22.8219 4.67604L16.75 10.7479C15.3542 12.1438 14.9354 14.1677 15.6333 15.9823L24.6365 38.7344C24.7063 39.0135 24.7063 39.2927 24.4969 39.5021L21.3563 42.6427Z" stroke="#1F4E79" stroke-width="0.697952" fill="#1F4E79" transform="matrix(1 0 0 1.01493 336 1054)"/></g></svg>