<svg width="79" height="80" xmlns="http://www.w3.org/2000/svg" xmlns:xlink="http://www.w3.org/1999/xlink" overflow="hidden"><defs><clipPath id="clip0"><rect x="1212" y="165" width="79" height="80"/></clipPath></defs><g clip-path="url(#clip0)" transform="translate(-1212 -165)"><path d="M39.5049 8.22917C22.2346 8.22917 8.2341 22.2296 8.2341 39.5 8.2341 56.7704 22.2346 70.7708 39.5049 70.7708 56.7753 70.7708 70.7758 56.7704 70.7758 39.5 70.7758 22.2296 56.7753 8.22917 39.5049 8.22917ZM42.9488 63.9406 44.8539 50.6094C41.4786 52.2585 37.5313 52.2585 34.156 50.6094L36.0602 63.9406C22.569 62.0493 13.1653 49.5793 15.0567 36.088 15.2136 34.9693 15.4471 33.8627 15.7556 32.7759L27.2007 40.2867C27.1842 40.025 27.1612 39.7658 27.1612 39.5 27.1631 35.9517 28.6965 32.5768 31.3679 30.2414L18.6308 26.344C25.8808 14.8155 41.1037 11.3472 52.6321 18.5971 55.7626 20.5658 58.4103 23.2135 60.379 26.344L47.6411 30.2414C50.313 32.5766 51.8468 35.9515 51.8487 39.5 51.8487 39.7658 51.8256 40.025 51.8092 40.2867L63.2543 32.7759C66.9748 45.8812 59.3669 59.5212 46.2616 63.2417 45.1747 63.5502 44.0678 63.7838 42.9488 63.9406Z" stroke="#1F4E79" stroke-width="0.822887" fill="#1F4E79" transform="matrix(1 0 0 1.01266 1212 165)"/><path d="M39.5049 30.4479C34.5056 30.4479 30.4529 34.5007 30.4529 39.5 30.4529 44.4993 34.5056 48.5521 39.5049 48.5521 44.5042 48.5521 48.557 44.4993 48.557 39.5 48.5516 34.5029 44.502 30.4533 39.5049 30.4479ZM39.5049 43.6146C37.2325 43.6146 35.3904 41.7724 35.3904 39.5 35.3904 37.2276 37.2325 35.3854 39.5049 35.3854 41.7773 35.3854 43.6195 37.2276 43.6195 39.5 43.6168 41.7713 41.7763 43.6119 39.5049 43.6146Z" stroke="#1F4E79" stroke-width="0.822887" fill="#1F4E79" transform="matrix(1 0 0 1.01266 1212 165)"/></g></svg>