<svg width="240" height="240" xmlns="http://www.w3.org/2000/svg" xmlns:xlink="http://www.w3.org/1999/xlink" overflow="hidden"><defs><clipPath id="clip0"><rect x="156" y="1637" width="240" height="240"/></clipPath></defs><g clip-path="url(#clip0)" transform="translate(-156 -1637)"><path d="M275.77 1839.63C237.099 1839.64 205.741 1808.3 205.73 1769.63 205.719 1730.96 237.059 1699.6 275.73 1699.59 314.401 1699.58 345.759 1730.92 345.77 1769.59 345.77 1769.6 345.77 1769.61 345.77 1769.61 345.839 1808.21 314.602 1839.56 276 1839.63 275.923 1839.63 275.847 1839.63 275.77 1839.63ZM335.02 1708.59 342.52 1701.09C345.323 1698.12 345.211 1693.44 342.27 1690.59 339.376 1687.77 334.795 1687.67 331.77 1690.34L323.27 1699.09C311.377 1691.04 297.592 1686.21 283.27 1685.09L283.27 1674.59 305.77 1674.59 305.77 1659.59 245.77 1659.59 245.77 1674.59 268.27 1674.59 268.27 1684.84C221.374 1688.93 186.666 1730.25 190.746 1777.14 194.827 1824.04 236.151 1858.75 283.046 1854.67 329.942 1850.59 364.65 1809.26 360.57 1762.37 358.794 1741.96 349.724 1722.87 335.02 1708.59Z" stroke="#1F4E79" stroke-width="2.50005" fill="#1F4E79"/><path d="M318.173 1811.98C341.594 1788.54 341.576 1750.55 318.135 1727.13 306.893 1715.9 291.656 1709.58 275.765 1709.57L275.765 1769.57Z" stroke="#1F4E79" stroke-width="2.50005" fill="#1F4E79"/></g></svg>