<svg width="254" height="254" xmlns="http://www.w3.org/2000/svg" xmlns:xlink="http://www.w3.org/1999/xlink" overflow="hidden"><defs><clipPath id="clip0"><rect x="530" y="1332" width="254" height="254"/></clipPath></defs><g clip-path="url(#clip0)" transform="translate(-530 -1332)"><path d="M686.898 1430.69C675.785 1430.69 667.054 1421.69 667.054 1410.85 667.054 1400 676.05 1391 686.898 1391 698.01 1391 706.742 1400 706.742 1410.85 706.742 1421.69 697.746 1430.69 686.898 1430.69ZM731.612 1398.41C730.554 1394.71 729.231 1391.27 727.379 1388.09L731.612 1375.66 722.088 1366.13 709.652 1370.36C706.477 1368.51 703.037 1367.19 699.333 1366.13L693.513 1354.49 680.283 1354.49 674.463 1366.13C670.758 1367.19 667.319 1368.51 664.144 1370.36L651.708 1366.13 642.183 1375.66 646.417 1388.09C644.565 1391.27 643.242 1394.71 642.183 1398.41L630.542 1404.23 630.542 1417.46 642.183 1423.28C643.242 1426.99 644.565 1430.43 646.417 1433.6L642.183 1446.04 651.444 1455.3 663.879 1451.06C667.054 1452.91 670.494 1454.24 674.198 1455.3L680.019 1466.94 693.248 1466.94 699.069 1455.3C702.773 1454.24 706.213 1452.91 709.388 1451.06L721.823 1455.3 731.348 1446.04 727.115 1433.6C728.967 1430.43 730.554 1426.72 731.612 1423.28L743.254 1417.46 743.254 1404.23 731.612 1398.41Z" stroke="#1F4E79" stroke-width="2.6458" fill="#1F4E79"/><path d="M627.102 1527C615.99 1527 607.258 1518 607.258 1507.15 607.258 1496.04 616.254 1487.31 627.102 1487.31 638.215 1487.31 646.946 1496.31 646.946 1507.15 646.946 1518 638.215 1527 627.102 1527L627.102 1527ZM667.583 1484.4 671.817 1471.96 662.292 1462.44 649.856 1466.67C646.681 1464.82 642.977 1463.5 639.537 1462.44L633.717 1450.8 620.487 1450.8 614.667 1462.44C610.963 1463.5 607.523 1464.82 604.348 1466.67L591.912 1462.44 582.652 1471.7 586.621 1484.14C584.769 1487.31 583.446 1491.01 582.388 1494.45L570.746 1500.28 570.746 1513.5 582.388 1519.32C583.446 1523.03 584.769 1526.47 586.621 1529.64L582.652 1542.08 591.912 1551.34 604.348 1547.37C607.523 1549.22 610.963 1550.55 614.667 1551.6L620.487 1563.25 633.717 1563.25 639.537 1551.6C643.242 1550.55 646.681 1549.22 649.856 1547.37L662.292 1551.6 671.552 1542.08 667.583 1529.91C669.435 1526.73 670.758 1523.29 671.817 1519.59L683.458 1513.77 683.458 1500.54 671.817 1494.72C670.758 1491.01 669.435 1487.57 667.583 1484.4Z" stroke="#1F4E79" stroke-width="2.6458" fill="#1F4E79"/></g></svg>