<svg width="240" height="240" xmlns="http://www.w3.org/2000/svg" xmlns:xlink="http://www.w3.org/1999/xlink" overflow="hidden"><defs><clipPath id="clip0"><rect x="1003" y="1636" width="240" height="240"/></clipPath></defs><g clip-path="url(#clip0)" transform="translate(-1003 -1636)"><path d="M1223 1658.5 1023 1658.5 1023 1678.5 1035.5 1678.5 1035.5 1856.11 1075.39 1856.11 1075.39 1848.5 1170.61 1848.5 1170.61 1856.11 1210.5 1856.11 1210.5 1678.5 1223 1678.5ZM1070.39 1851.11 1040.5 1851.11 1040.5 1678.5 1095.5 1678.5 1095.5 1693.3C1095.5 1727.61 1079.33 1763.8 1055.27 1783.37L1051.88 1786.12 1054.15 1789.85C1063.47 1805.39 1069.03 1822.9 1070.4 1840.97ZM1058.42 1787.25C1065.06 1781.78 1070.98 1775.48 1076.02 1768.5L1120.5 1768.5 1120.5 1831 1074.23 1831C1071.8 1815.54 1066.43 1800.69 1058.42 1787.25ZM1125.5 1768.5 1169.98 1768.5C1175.02 1775.48 1180.94 1781.78 1187.58 1787.25 1179.57 1800.69 1174.2 1815.54 1171.77 1831L1125.5 1831ZM1125.5 1763.5 1125.5 1678.5 1145.5 1678.5 1145.5 1693.3C1145.7 1718.22 1152.99 1742.57 1166.52 1763.5ZM1120.5 1763.5 1079.48 1763.5C1093.01 1742.57 1100.3 1718.22 1100.5 1693.3L1100.5 1678.5 1120.5 1678.5ZM1075.39 1843.5 1075.39 1840.81C1075.29 1839.22 1075.09 1837.61 1074.92 1836L1171.08 1836C1170.91 1837.61 1170.71 1839.22 1170.61 1840.81L1170.61 1843.5ZM1205.5 1851.11 1175.61 1851.11 1175.61 1840.97C1176.98 1822.9 1182.54 1805.4 1191.86 1789.85L1194.13 1786.12 1190.74 1783.37C1166.67 1763.81 1150.5 1727.61 1150.5 1693.3L1150.5 1678.5 1205.5 1678.5ZM1218 1673.5 1028 1673.5 1028 1663.5 1218 1663.5Z" stroke="#1F4E79" stroke-width="8" fill="#1F4E79"/></g></svg>